<svg width="23" height="23" viewBox="0 0 23 23" fill="none" xmlns="http://www.w3.org/2000/svg">
<rect width="23" height="23" rx="2.90909" fill="#130513"/>
<path d="M20.7541 18.9908C20.7663 18.9908 20.7782 18.9877 20.7888 18.9817C20.7993 18.9757 20.8082 18.9671 20.8144 18.9566C20.8205 18.946 20.8237 18.9339 20.8237 18.9216C20.8237 18.9094 20.8205 18.8973 20.8144 18.8867C19.9176 17.166 18.9154 15.5021 17.8136 13.9046C17.1952 13.0085 16.5634 12.1677 15.9372 11.4059C15.8798 11.3369 15.8513 11.2486 15.8573 11.1592C15.8633 11.0698 15.9034 10.986 15.9694 10.9253C18.0126 9.0289 19.7021 6.73308 20.9923 4.10356C20.9979 4.09263 21.0005 4.08039 20.9999 4.06811C20.9993 4.05583 20.9955 4.04394 20.9888 4.03361C20.9825 4.0233 20.9736 4.01477 20.9631 4.00888C20.9525 4.003 20.9406 3.99993 20.9285 4H18.4735C18.4608 4.00003 18.4484 4.00351 18.4375 4.01004C18.4267 4.01657 18.4178 4.02593 18.4118 4.0371C17.355 5.96272 16.0005 7.70972 14.3983 9.21359C14.3332 9.2756 14.2466 9.31019 14.1566 9.31019C14.0666 9.31019 13.9801 9.2756 13.915 9.21359C13.5082 8.82355 13.0798 8.45666 12.6318 8.11464C11.6448 7.36824 10.4989 6.83032 9.12955 6.47007C9.05427 6.45066 8.9876 6.40675 8.94004 6.34533C8.89248 6.2839 8.86675 6.2084 8.86688 6.13076V4.07556C8.86688 4.057 8.85953 4.03922 8.8464 4.0261C8.83326 4.01298 8.81541 4.0056 8.79684 4.0056H6.62057C6.61124 4.00546 6.60197 4.00717 6.59331 4.01066C6.58465 4.01414 6.57675 4.01932 6.57012 4.02589C6.56342 4.03245 6.55814 4.04033 6.55453 4.04898C6.55092 4.05763 6.54907 4.06687 6.54913 4.07624V5.7894C6.54987 5.87469 6.5194 5.95732 6.46342 6.02173C6.40743 6.08614 6.3298 6.1279 6.24514 6.13916C5.50041 6.23982 4.78734 6.50439 4.15746 6.91376C3.52757 7.32314 2.9966 7.86708 2.60284 8.50635C1.4436 10.4091 1.99975 12.8665 3.89726 14.2229C4.59474 14.7157 5.40215 15.031 6.24935 15.1414C6.33337 15.1534 6.41016 15.1955 6.46543 15.2599C6.52071 15.3242 6.5507 15.4064 6.54984 15.4912V18.93C6.54984 18.9486 6.55719 18.9664 6.57033 18.9795C6.58347 18.9926 6.60131 19 6.61989 19H8.79615C8.80554 19.0001 8.81485 18.9982 8.82351 18.9946C8.83218 18.991 8.84 18.9857 8.84657 18.979C8.85314 18.9723 8.85833 18.9645 8.86182 18.9559C8.86531 18.9472 8.86703 18.9379 8.86688 18.9286V15.2967C8.86673 15.2175 8.89347 15.1407 8.94271 15.0787C8.99194 15.0167 9.06077 14.9732 9.13796 14.9553C9.60166 14.8435 10.0581 14.7033 10.5045 14.5356C10.6446 14.4845 11.9201 14.0012 13.6565 12.7987C13.7149 12.758 13.7843 12.7363 13.8555 12.7364C13.9074 12.7362 13.9587 12.7475 14.0057 12.7695C14.0527 12.7915 14.0942 12.8237 14.1272 12.8637C15.5365 14.5768 16.9906 16.7426 18.2227 18.9622C18.2288 18.9733 18.2377 18.9825 18.2485 18.9889C18.2594 18.9953 18.2718 18.9986 18.2844 18.9986L20.7541 18.9908ZM6.38804 12.6672C6.33854 12.7041 6.28089 12.7285 6.21994 12.7385C6.15899 12.7485 6.09652 12.7437 6.03782 12.7245C5.75566 12.636 5.48925 12.5035 5.24841 12.3321C4.33363 11.6787 4.05416 10.5728 4.58439 9.70258C4.91604 9.16507 5.42433 8.75929 6.02239 8.55464C6.08209 8.53361 6.14595 8.52721 6.20865 8.53593C6.27135 8.54465 6.33107 8.56826 6.38274 8.60479C6.4344 8.64131 6.47654 8.68963 6.50562 8.74578C6.5347 8.80194 6.54987 8.86428 6.54984 8.9275V12.3475C6.54987 12.4097 6.53523 12.471 6.50713 12.5266C6.47902 12.5821 6.43823 12.6303 6.38804 12.6672V12.6672ZM12.0819 10.8701C12.0775 10.9309 12.059 10.99 12.0279 11.0425C11.9968 11.0951 11.9539 11.1397 11.9026 11.173C10.6138 12.0124 9.71584 12.3524 9.70673 12.3552C9.60236 12.3937 9.4966 12.4314 9.39293 12.4657C9.33342 12.4859 9.26992 12.4917 9.20773 12.4825C9.14554 12.4734 9.08643 12.4495 9.03529 12.413C8.98415 12.3765 8.94247 12.3284 8.91367 12.2726C8.88487 12.2168 8.86978 12.155 8.86969 12.0922V9.34161C8.86992 9.27812 8.88544 9.2156 8.91493 9.15935C8.94443 9.10311 8.98703 9.05477 9.03915 9.01842C9.09128 8.98207 9.1514 8.9588 9.21444 8.95052C9.27747 8.94224 9.34158 8.94923 9.40135 8.97088C10.0601 9.20218 10.679 9.53417 11.2358 9.95506C11.4677 10.1306 11.7086 10.3293 11.9516 10.5462C11.9973 10.5866 12.0329 10.6371 12.0555 10.6937C12.0782 10.7503 12.0872 10.8114 12.0819 10.8722V10.8701Z" fill="#C4CBFF"/>
</svg>
