<svg viewBox="0 0 24 24" fill="none" xmlns="http://www.w3.org/2000/svg">
  <path d="M9.9424 0C7.14229 0 6.62882 2.45309 6.62882 4.24171C4.92183 4.24171 2.00501 3.85103 0.804961 5.04965C-0.395087 6.24828 0.102081 10.7644 0.10208 11.6809C1.9373 11.6809 4.92183 11.5132 4.92183 14.139C4.92183 16.7649 3.77252 16.7649 0.10208 16.7649C0.10208 18.5979 -0.11265 22.2109 0.80496 23.1274C1.72257 24.0439 7.30137 23.9354 7.30137 23.9354C7.30137 23.9354 7.5423 19.1887 9.9424 19.1887C12.3425 19.1887 12.5531 22.1023 12.5531 23.9354C14.3883 23.9354 18.0757 24.3393 18.9794 23.1274C19.8831 21.9155 19.8831 19.5685 19.8831 17.5728C21.6711 17.5728 24 16.8886 24 14.139C24 11.3895 21.2711 10.8063 19.8831 10.8063C19.8831 9.2097 19.8831 5.95859 18.9794 5.04965C18.0757 4.14072 15.0912 4.24171 13.256 4.24171C13.256 2.45309 12.7425 0 9.9424 0Z" fill="current"/>
</svg>
