<svg viewBox="0 0 910 222" fill="current" xmlns="http://www.w3.org/2000/svg">
<path d="M259.37 18.3995C259.695 17.7419 259.847 17.0131 259.812 16.2804C259.776 15.5477 259.554 14.8358 259.166 14.213C258.779 13.5902 258.238 13.0766 257.597 12.7208C256.955 12.365 256.234 12.1787 255.5 12.1798H222.8C222.03 12.1796 221.273 12.3871 220.61 12.7794C219.947 13.1717 219.401 13.7349 219.03 14.4103C205.125 39.7746 187.302 62.7842 166.22 82.59C165.974 82.8213 165.648 82.9503 165.31 82.9503C164.972 82.9503 164.647 82.8213 164.4 82.59C158.887 77.3052 153.085 72.3305 147.02 67.6896C133.52 57.4596 117.87 50.0998 99.1803 45.1798C98.8955 45.1105 98.6423 44.9481 98.461 44.7179C98.2797 44.4877 98.1809 44.2033 98.1803 43.9103V16.5001C98.1776 15.3561 97.7211 14.2593 96.9112 13.4513C96.1013 12.6433 95.0044 12.1896 93.8604 12.1896H64.8604C64.2941 12.1883 63.7326 12.2996 63.2091 12.5157C62.6856 12.7319 62.2101 13.0489 61.8097 13.4493C61.4092 13.8498 61.0917 14.3252 60.8756 14.8488C60.6594 15.3723 60.5491 15.9338 60.5504 16.5001V39.3497C60.5513 39.6649 60.4382 39.9703 60.2325 40.2091C60.0268 40.4479 59.7421 40.6038 59.4303 40.6495C49.016 42.0628 39.0453 45.7706 30.2379 51.505C21.4305 57.2394 14.0059 64.8576 8.50008 73.8097C-7.86992 100.7 -0.0597591 135.41 26.6602 154.54C36.389 161.435 47.656 165.846 59.4801 167.39C59.7892 167.435 60.0716 167.591 60.2755 167.828C60.4793 168.065 60.5914 168.367 60.5904 168.68V214.54C60.5904 215.684 61.0441 216.781 61.8521 217.591C62.6601 218.401 63.756 218.858 64.9 218.86H93.9C95.0449 218.858 96.1422 218.401 96.9517 217.592C97.7613 216.782 98.2177 215.685 98.2203 214.54V166.11C98.2187 165.816 98.3162 165.528 98.4976 165.296C98.6791 165.064 98.9339 164.9 99.2203 164.83C105.525 163.302 111.732 161.398 117.81 159.13C119.71 158.44 137.03 151.88 160.5 135.57C160.771 135.384 161.101 135.305 161.427 135.35C161.752 135.394 162.049 135.558 162.26 135.81C180.9 158.51 200.15 187.21 216.46 216.64C216.833 217.313 217.38 217.873 218.043 218.264C218.706 218.654 219.461 218.861 220.23 218.86H253.11C253.852 218.86 254.581 218.668 255.227 218.304C255.873 217.94 256.414 217.415 256.799 216.781C257.184 216.147 257.399 215.426 257.423 214.685C257.448 213.944 257.282 213.208 256.94 212.55C244.931 189.476 231.513 167.164 216.76 145.74C208.47 133.74 200 122.42 191.59 112.19C191.378 111.929 191.271 111.598 191.294 111.262C191.316 110.926 191.465 110.611 191.71 110.38C219.26 84.79 242.01 53.8495 259.37 18.3995ZM134.27 106.93C134.25 107.226 134.161 107.513 134.01 107.769C133.859 108.024 133.65 108.239 133.4 108.4C116.65 119.34 105.03 123.76 104.83 123.83C103.45 124.35 102.09 124.83 100.75 125.28C100.462 125.383 100.152 125.413 99.8492 125.369C99.5461 125.326 99.2584 125.21 99.0103 125.03C98.7618 124.858 98.5589 124.628 98.4195 124.359C98.2801 124.091 98.2082 123.793 98.21 123.49V86.7999C98.2082 86.4962 98.2802 86.1968 98.4195 85.9269C98.5588 85.6569 98.7617 85.4246 99.0103 85.2501C99.3324 85.0234 99.7165 84.9006 100.11 84.8995C100.339 84.901 100.566 84.9417 100.78 85.0197C109.248 87.9791 117.205 92.2333 124.37 97.63C127.37 99.92 130.53 102.51 133.7 105.35C133.913 105.549 134.076 105.797 134.175 106.071C134.274 106.346 134.307 106.64 134.27 106.93ZM60.6002 126.93C60.6031 127.233 60.5327 127.532 60.3951 127.802C60.2576 128.072 60.0569 128.304 59.8101 128.48C59.578 128.656 59.3069 128.774 59.0196 128.822C58.7324 128.871 58.4375 128.849 58.1602 128.76C54.7374 127.68 51.5048 126.071 48.5802 123.99C37.8702 116.32 34.5802 103.46 40.6602 93.4103C44.6673 86.9047 50.8112 81.9938 58.0401 79.5197C58.33 79.4147 58.6412 79.3833 58.9464 79.4269C59.2515 79.4705 59.5413 79.5877 59.7901 79.7697C60.0394 79.9436 60.2425 80.1763 60.3819 80.4464C60.5213 80.7165 60.5931 81.0165 60.5904 81.3204L60.6002 126.93Z" fill="current"/>
<path d="M316.83 68.3995C273.93 68.3995 240.33 101.4 240.33 144.3C240.33 187.8 274.23 221.7 317.73 221.7C353.1 221.7 380.2 202.7 386.61 173.09C386.707 172.618 386.697 172.13 386.581 171.662C386.465 171.194 386.247 170.759 385.941 170.386C385.636 170.013 385.25 169.713 384.814 169.508C384.378 169.303 383.902 169.198 383.42 169.2H348.25C347.589 169.2 346.945 169.405 346.407 169.789C345.869 170.173 345.465 170.715 345.25 171.34C341.96 180.39 331.81 186.6 316.49 186.6C298.12 186.6 284.14 176.01 279.82 159.15C279.698 158.669 279.688 158.167 279.789 157.682C279.891 157.197 280.103 156.742 280.408 156.351C280.713 155.96 281.103 155.644 281.549 155.427C281.995 155.21 282.484 155.098 282.98 155.1H385.56C386.371 155.101 387.152 154.799 387.752 154.253C388.351 153.707 388.725 152.957 388.8 152.15C389.19 147.79 389.39 142.77 389.39 140.1C389.43 99.6297 356.73 68.3995 316.83 68.3995ZM283.59 128.1C283.303 128.1 283.02 128.031 282.765 127.9C282.51 127.768 282.29 127.577 282.124 127.343C281.958 127.109 281.849 126.839 281.808 126.555C281.768 126.271 281.796 125.981 281.89 125.71C287.42 109.96 299.59 102.6 315.03 102.6C329.9 102.6 342.87 112.15 345.08 126.04C345.119 126.295 345.102 126.555 345.031 126.803C344.96 127.051 344.836 127.281 344.668 127.477C344.5 127.672 344.291 127.829 344.057 127.937C343.823 128.044 343.568 128.1 343.31 128.1H283.59Z" fill="current"/>
<path d="M480.37 68.3995C465.37 68.3995 452.79 74.8501 443.64 86.2501C443.405 86.5342 443.089 86.7386 442.733 86.8361C442.378 86.9335 442.001 86.9188 441.654 86.7941C441.307 86.6694 441.008 86.4412 440.796 86.1398C440.584 85.8383 440.47 85.479 440.47 85.1105V74.63C440.47 73.768 440.127 72.9416 439.518 72.3321C438.908 71.7227 438.082 71.38 437.22 71.38H401.37C400.509 71.3826 399.684 71.7262 399.075 72.3351C398.466 72.944 398.123 73.7689 398.12 74.63V215.43C398.12 216.292 398.462 217.118 399.072 217.728C399.681 218.337 400.508 218.68 401.37 218.68H437.17C437.597 218.681 438.021 218.599 438.415 218.436C438.81 218.273 439.169 218.033 439.471 217.731C439.773 217.429 440.012 217.07 440.175 216.675C440.338 216.28 440.421 215.857 440.42 215.43V140.68C440.42 121.48 451.82 108.88 469.52 108.88C486.92 108.88 498.62 121.48 498.62 140.68V215.43C498.62 215.857 498.705 216.281 498.869 216.676C499.032 217.071 499.273 217.43 499.576 217.732C499.878 218.033 500.238 218.273 500.633 218.436C501.029 218.598 501.452 218.681 501.88 218.68H537.67C538.097 218.681 538.521 218.598 538.917 218.436C539.312 218.273 539.672 218.033 539.974 217.732C540.277 217.43 540.518 217.071 540.682 216.676C540.845 216.281 540.93 215.857 540.93 215.43V135.28C540.93 93.6304 518.12 68.3995 480.37 68.3995Z" fill="current"/>
<path d="M901.57 71.4H865.77C863.975 71.4 862.52 72.8551 862.52 74.65V215.45C862.52 217.245 863.975 218.7 865.77 218.7H901.57C903.365 218.7 904.82 217.245 904.82 215.45V74.65C904.82 72.8551 903.365 71.4 901.57 71.4Z" fill="current"/>
<path d="M883.52 51.2999C890.346 51.2476 896.878 48.5128 901.705 43.6857C906.533 38.8585 909.268 32.3265 909.32 25.5001C909.32 11.7001 897.62 0.00012207 883.52 0.00012207C869.42 0.00012207 857.72 11.7001 857.72 25.5001C857.772 32.3265 860.507 38.8585 865.334 43.6857C870.161 48.5128 876.693 51.2476 883.52 51.2999Z" fill="current"/>
<path d="M787.22 68.3995C772.22 68.3995 759.67 74.8303 750.53 86.2003C750.293 86.4899 749.972 86.6986 749.611 86.798C749.25 86.8974 748.867 86.8822 748.515 86.755C748.163 86.6278 747.859 86.3942 747.645 86.087C747.431 85.7799 747.318 85.4145 747.32 85.0402V11.9503C747.318 11.0892 746.974 10.2633 746.365 9.65442C745.756 9.0455 744.931 8.70295 744.07 8.70032H708.27C707.408 8.70032 706.582 9.042 705.972 9.65149C705.363 10.261 705.02 11.0884 705.02 11.9503V215.45C705.019 215.877 705.102 216.301 705.265 216.695C705.427 217.09 705.667 217.449 705.969 217.751C706.271 218.053 706.63 218.292 707.025 218.455C707.42 218.618 707.843 218.702 708.27 218.7H744.07C744.932 218.7 745.759 218.358 746.368 217.748C746.978 217.139 747.32 216.312 747.32 215.45V140.7C747.32 121.5 758.72 108.9 776.42 108.9C793.82 108.9 805.52 121.5 805.52 140.7V215.45C805.52 216.312 805.863 217.139 806.472 217.748C807.082 218.358 807.908 218.7 808.77 218.7H844.57C845.432 218.7 846.259 218.358 846.868 217.748C847.478 217.139 847.82 216.312 847.82 215.45V135.3C847.82 93.6299 825.02 68.3995 787.22 68.3995Z" fill="current"/>
<path d="M625.82 181.2C605.72 181.2 590.72 165.6 590.72 145.2C590.72 124.2 605.72 108.9 625.82 108.9C638.99 108.9 650.32 115.7 654.21 125.39C654.444 126 654.854 126.526 655.389 126.901C655.923 127.277 656.557 127.486 657.21 127.5H694.02C694.493 127.501 694.96 127.398 695.39 127.199C695.819 127.001 696.2 126.712 696.505 126.351C696.811 125.99 697.034 125.567 697.159 125.11C697.284 124.654 697.308 124.176 697.23 123.71C691.53 91.7101 661.29 68.3995 625.78 68.3995C582.28 68.3995 549.28 101.4 549.28 145.2C549.28 189 582.28 221.7 625.78 221.7C661.94 221.7 692.52 198.27 697.62 165.13C697.687 164.668 697.655 164.196 697.524 163.747C697.393 163.299 697.167 162.883 696.862 162.529C696.556 162.176 696.179 161.892 695.754 161.697C695.329 161.502 694.867 161.4 694.4 161.4H657.55C656.881 161.406 656.229 161.616 655.682 162.002C655.136 162.388 654.72 162.931 654.49 163.56C650.64 173.84 639.02 181.2 625.82 181.2Z" fill="current"/>
</svg>
