<svg width="264" height="264" viewBox="0 0 264 264" fill="none" xmlns="http://www.w3.org/2000/svg">
<path d="M0 264L-4.37114e-06 164C-4.66083e-06 157.373 5.37258 152 12 152V152C18.6274 152 24 157.373 24 164L24 264L0 264Z" fill="white"/>
<path d="M40 264L40 140C40 133.373 45.3725 128 52 128V128C58.6274 128 64 133.373 64 140L64 264L40 264Z" fill="#A1B651"/>
<path d="M80 264L80 92C80 85.3726 85.3726 80 92 80V80C98.6274 80 104 85.3726 104 92L104 264L80 264Z" fill="#C4CBFF"/>
<path d="M120 264L120 108C120 101.373 125.373 96 132 96V96C138.627 96 144 101.373 144 108L144 264L120 264Z" fill="white"/>
<path d="M160 264L160 84C160 77.3726 165.373 72 172 72V72C178.627 72 184 77.3726 184 84L184 264L160 264Z" fill="#A1B651"/>
<path d="M200 264L200 52C200 45.3726 205.373 40 212 40V40C218.627 40 224 45.3726 224 52L224 264L200 264Z" fill="#C4CBFF"/>
<path d="M240 264L240 12C240 5.37259 245.373 -2.34843e-07 252 -5.24537e-07V-5.24537e-07C258.627 -8.1423e-07 264 5.37258 264 12L264 264L240 264Z" fill="white"/>
</svg>
