<svg width="265" height="264" viewBox="0 0 265 264" fill="none" xmlns="http://www.w3.org/2000/svg">
<path d="M251.454 188.242L206.796 167.18C212.002 156.185 214.684 144.165 214.645 132C214.619 110.091 205.904 89.0879 190.413 73.5964C174.921 58.1049 153.918 49.3902 132.01 49.3641V0C154.245 0.00864634 176.117 5.63184 195.6 16.348C215.082 27.0642 231.543 42.5264 243.455 61.3008C255.368 80.0752 262.347 101.554 263.746 123.745C265.144 145.936 260.916 168.12 251.454 188.242Z" fill="#A1B651"/>
<path d="M132.01 263.999V214.635C147.683 214.59 163.025 210.11 176.259 201.712C189.494 193.314 200.081 181.342 206.796 167.18L251.454 188.242C240.724 210.855 223.812 229.969 202.676 243.375C181.539 256.781 157.039 263.931 132.01 263.999Z" fill="white"/>
<path d="M132.01 263.999C114.243 264.063 96.649 260.509 80.3005 253.552C63.952 246.596 49.1913 236.383 36.9179 223.537L72.4765 189.295C80.1608 197.337 89.4018 203.732 99.6367 208.088C109.872 212.445 120.886 214.672 132.01 214.635V263.999Z" fill="#9CA0A6"/>
<path d="M36.9179 223.537C18.9553 204.886 6.87611 181.362 2.18445 155.896C-2.50721 130.43 0.396002 104.147 10.5324 80.3185C20.6688 56.4903 37.5906 36.1702 59.1908 21.8886C80.7909 7.60699 106.115 -0.00516484 132.01 2.62918e-06V49.3641C115.799 49.3638 99.9469 54.1312 86.4259 63.0728C72.9048 72.0144 62.3122 84.7353 55.9667 99.6519C49.6212 114.569 47.8032 131.022 50.7388 146.964C53.6743 162.907 61.2339 177.633 72.4764 189.311L36.9179 223.537Z" fill="#C4CBFF"/>
</svg>
