<svg width="264" height="264" viewBox="0 0 264 264" fill="none" xmlns="http://www.w3.org/2000/svg">
<circle cx="66" cy="66" r="66" fill="#130513"/>
<circle cx="66" cy="198" r="66" fill="#A1B651"/>
<circle cx="198" cy="66" r="66" fill="#C4CBFF"/>
<circle cx="198" cy="198" r="66" fill="#9CA0A6"/>
<line x1="199.5" y1="158" x2="199.5" y2="237" stroke="#130513" stroke-width="2"/>
<line x1="238" y1="198.5" x2="159" y2="198.5" stroke="#130513" stroke-width="2"/>
<line x1="94.1375" y1="39.2764" x2="38.2761" y2="95.1379" stroke="white" stroke-width="2"/>
<line x1="92.7233" y1="95.1378" x2="36.8619" y2="39.2764" stroke="white" stroke-width="2"/>
<path d="M194 103C200.72 81.0906 212.539 66.5 226 66.5C212.539 66.5 200.72 51.9468 194 30" stroke="#130513" stroke-width="2" stroke-miterlimit="10"/>
<line x1="174" y1="66" x2="226" y2="66" stroke="#130513" stroke-width="2"/>
<path d="M103 204.5C81.0909 197.78 66.5002 185.961 66.5002 172.5C66.5002 185.961 51.947 197.78 30.0002 204.5" stroke="#130513" stroke-width="2" stroke-miterlimit="10"/>
<line x1="66" y1="224.5" x2="66" y2="172.5" stroke="#130513" stroke-width="2"/>
</svg>
