<svg width="264" height="264" viewBox="0 0 264 264" fill="none" xmlns="http://www.w3.org/2000/svg">
<rect x="264" y="264" width="101.174" height="169.15" rx="16" transform="rotate(-180 264 264)" fill="white"/>
<path d="M147.018 248C147.018 256.837 139.855 264 131.018 264L16.0001 264C7.16352 264 8.76335e-05 256.837 8.83869e-05 248L0.00010008 110.85C0.000100833 102.014 7.16355 94.8503 16.0001 94.8503L131.018 94.8503C139.855 94.8503 147.018 102.014 147.018 110.85L147.018 248Z" fill="#A1B651"/>
<path d="M264 64.6228C264 73.4593 256.837 80.6227 248 80.6227L16 80.6227C7.16344 80.6227 6.26248e-07 73.4593 1.39876e-06 64.6227L5.6495e-06 16C6.42202e-06 7.16342 7.16345 -1.38703e-05 16 -1.30978e-05L248 7.1843e-06C256.837 7.95682e-06 264 7.16345 264 16L264 64.6228Z" fill="#C4CBFF"/>
<circle cx="74.2993" cy="178.635" r="56.9102" fill="white"/>
<line x1="33.6384" y1="179.195" x2="112.638" y2="179.195" stroke="#130513" stroke-width="2"/>
<line x1="74.1384" y1="140.695" x2="74.1384" y2="219.695" stroke="#130513" stroke-width="2"/>
</svg>
