<svg width="136" height="136" viewBox="0 0 136 136" fill="none" xmlns="http://www.w3.org/2000/svg">
<rect width="136" height="136" rx="23.2727" fill="#C4CBFF"/>
<path d="M113.992 31.4535C114.111 31.2114 114.167 30.943 114.154 30.6732C114.141 30.4034 114.059 30.1413 113.917 29.912C113.774 29.6826 113.576 29.4935 113.34 29.3625C113.104 29.2315 112.839 29.1629 112.569 29.1633H100.548C100.264 29.1633 99.9862 29.2397 99.7424 29.3841C99.4986 29.5286 99.298 29.7359 99.1617 29.9846C94.0497 39.3239 87.4976 47.7963 79.7474 55.0889C79.6567 55.1741 79.5371 55.2216 79.4128 55.2216C79.2885 55.2216 79.1688 55.1741 79.0782 55.0889C77.0515 53.1431 74.9185 51.3113 72.6889 49.6025C67.726 45.8357 61.9727 43.1258 55.1018 41.3142C54.9971 41.2887 54.904 41.2289 54.8373 41.1441C54.7707 41.0594 54.7344 40.9547 54.7341 40.8468V30.7541C54.7332 30.3329 54.5653 29.929 54.2676 29.6315C53.9699 29.334 53.5666 29.1669 53.1461 29.1669H42.4849C42.2767 29.1664 42.0703 29.2074 41.8778 29.287C41.6854 29.3666 41.5106 29.4833 41.3634 29.6308C41.2161 29.7782 41.0994 29.9533 41.02 30.1461C40.9405 30.3388 40.8999 30.5456 40.9004 30.7541V39.1675C40.9008 39.2836 40.8592 39.396 40.7836 39.484C40.7079 39.5719 40.6033 39.6293 40.4886 39.6461C36.6601 40.1665 32.9946 41.5317 29.7568 43.6432C26.519 45.7547 23.7895 48.5597 21.7654 51.856C15.7474 61.7571 18.6186 74.5378 28.4416 81.5816C32.0181 84.1204 36.1601 85.7446 40.507 86.3129C40.6206 86.3297 40.7244 86.3871 40.7994 86.4744C40.8743 86.5616 40.9155 86.6729 40.9152 86.7879V103.674C40.9152 104.095 41.082 104.499 41.379 104.797C41.676 105.096 42.0789 105.264 42.4995 105.265H53.1606C53.5815 105.264 53.9849 105.096 54.2825 104.798C54.5801 104.5 54.7479 104.096 54.7488 103.674V85.8419C54.7483 85.7334 54.7841 85.6275 54.8508 85.542C54.9175 85.4565 55.0112 85.3962 55.1165 85.3705C57.4342 84.8078 59.7163 84.1069 61.9506 83.2716C62.6491 83.0176 69.0163 80.6023 77.6445 74.5968C77.744 74.5282 77.8655 74.4992 77.9852 74.5155C78.1048 74.5319 78.2141 74.5922 78.2916 74.6849C85.1441 83.0432 92.2208 93.6108 98.2168 104.447C98.3539 104.695 98.5548 104.901 98.7985 105.045C99.0423 105.189 99.3199 105.265 99.6027 105.265H111.69C111.963 105.265 112.231 105.194 112.468 105.06C112.706 104.926 112.905 104.733 113.046 104.499C113.188 104.266 113.267 104 113.276 103.727C113.285 103.454 113.224 103.184 113.098 102.941C108.684 94.4453 103.751 86.2299 98.3272 78.3414C95.2796 73.9229 92.1658 69.7545 89.0741 65.9878C88.9958 65.8917 88.9567 65.7698 88.9649 65.6462C88.9731 65.5225 89.0278 65.4063 89.118 65.3215C99.2461 55.899 107.61 44.5065 113.992 31.4535ZM68.0017 64.0511C67.9942 64.16 67.9615 64.266 67.906 64.3599C67.8505 64.4539 67.7736 64.5333 67.6818 64.5922C61.5241 68.6204 57.2523 70.2482 57.1788 70.2739C56.6715 70.4654 56.1715 70.6422 55.6789 70.8079C55.5728 70.8456 55.4591 70.8567 55.3477 70.8406C55.2362 70.8246 55.1305 70.782 55.0393 70.7159C54.9479 70.6524 54.8733 70.5676 54.8221 70.4688C54.7708 70.37 54.7444 70.2601 54.7451 70.1488V56.6391C54.7444 56.5272 54.7709 56.417 54.8221 56.3176C54.8733 56.2182 54.9479 56.1327 55.0393 56.0684C55.1577 55.9849 55.2989 55.9397 55.4437 55.9393C55.5277 55.9399 55.611 55.9549 55.69 55.9836C58.8029 57.0733 61.7283 58.6397 64.3622 60.6268C65.4651 61.47 66.6268 62.4236 67.7922 63.4693C67.8705 63.5428 67.9302 63.6339 67.9667 63.735C68.0031 63.8361 68.0151 63.9444 68.0017 64.0511ZM40.9187 71.4152C40.9198 71.5268 40.8939 71.637 40.8434 71.7363C40.7928 71.8357 40.719 71.9212 40.6283 71.9859C40.5429 72.0507 40.4433 72.0942 40.3377 72.1121C40.2321 72.1301 40.1237 72.1221 40.0218 72.0891C38.7634 71.6915 37.575 71.099 36.4999 70.3329C32.5626 67.5087 31.3532 62.7736 33.5883 59.0731C35.0614 56.6777 37.3201 54.8694 39.9776 53.9584C40.0842 53.9198 40.1986 53.9082 40.3108 53.9243C40.4229 53.9403 40.5295 53.9835 40.6209 54.0505C40.7126 54.1145 40.7873 54.2002 40.8385 54.2997C40.8897 54.3991 40.9161 54.5096 40.9152 54.6215L40.9187 71.4152Z" fill="#130513"/>
</svg>
