<svg width="297" height="238" viewBox="0 0 297 238" fill="none" xmlns="http://www.w3.org/2000/svg">
<path d="M296.49 7.10205C296.861 6.35118 297.035 5.51891 296.994 4.68229C296.953 3.84568 296.699 3.03282 296.256 2.32163C295.813 1.61045 295.196 1.02402 294.463 0.617768C293.729 0.211517 292.905 -0.00122397 292.066 5.29709e-06H254.691C253.81 -0.000206394 252.945 0.236722 252.187 0.684674C251.429 1.13263 250.806 1.77568 250.382 2.54688C234.488 31.5093 214.117 57.783 190.02 80.3984C189.739 80.6625 189.367 80.8099 188.98 80.8099C188.594 80.8099 188.222 80.6625 187.94 80.3984C181.639 74.364 175.007 68.6836 168.075 63.3843C152.644 51.7031 134.757 43.2993 113.394 37.6813C113.069 37.6021 112.78 37.4168 112.572 37.1539C112.365 36.891 112.252 36.5663 112.251 36.2317V4.93319C112.248 3.6269 111.727 2.37448 110.801 1.45186C109.875 0.529244 108.621 0.0111528 107.314 0.0111563H74.1672C73.5199 0.00965052 72.8781 0.136808 72.2797 0.383598C71.6814 0.630389 71.138 0.992335 70.6802 1.44963C70.2225 1.90692 69.8596 2.44979 69.6126 3.04756C69.3655 3.64533 69.2394 4.28648 69.2409 4.93319V31.0242C69.242 31.3841 69.1127 31.7328 68.8776 32.0055C68.6424 32.2781 68.317 32.4562 67.9606 32.5084C56.0572 34.1221 44.6608 38.3559 34.5941 44.9038C24.5273 51.4517 16.041 60.1505 9.74801 70.3726C-8.96272 101.077 -0.0357947 140.712 30.5049 162.555C41.6247 170.428 54.5028 175.465 68.0175 177.228C68.3709 177.28 68.6937 177.458 68.9267 177.728C69.1597 177.999 69.2877 178.344 69.2867 178.701V231.067C69.2867 232.373 69.8053 233.626 70.7288 234.55C71.6523 235.475 72.9049 235.997 74.2124 236H107.359C108.668 235.997 109.922 235.476 110.847 234.551C111.773 233.627 112.294 232.374 112.297 231.067V175.767C112.295 175.43 112.407 175.102 112.614 174.837C112.822 174.572 113.113 174.385 113.44 174.305C120.646 172.56 127.741 170.386 134.688 167.796C136.86 167.008 156.656 159.518 183.482 140.895C183.792 140.682 184.17 140.592 184.542 140.643C184.914 140.693 185.253 140.88 185.494 141.168C206.8 167.088 228.802 199.859 247.444 233.464C247.87 234.233 248.495 234.873 249.253 235.319C250.01 235.764 250.874 236 251.753 236H289.335C290.182 235.999 291.015 235.78 291.754 235.364C292.492 234.949 293.111 234.35 293.551 233.626C293.99 232.902 294.236 232.078 294.265 231.232C294.293 230.386 294.102 229.546 293.712 228.794C279.986 202.447 264.649 176.97 247.787 152.507C238.312 138.805 228.631 125.878 219.018 114.197C218.775 113.899 218.653 113.521 218.679 113.138C218.704 112.754 218.874 112.394 219.155 112.131C250.644 82.9105 276.647 47.5809 296.49 7.10205ZM153.502 108.191C153.479 108.529 153.377 108.857 153.204 109.149C153.032 109.44 152.793 109.686 152.507 109.869C133.362 122.361 120.081 127.409 119.852 127.489C118.275 128.083 116.72 128.631 115.189 129.145C114.859 129.262 114.505 129.296 114.159 129.246C113.813 129.197 113.484 129.064 113.2 128.859C112.916 128.663 112.684 128.4 112.525 128.093C112.366 127.787 112.283 127.446 112.285 127.101V85.2056C112.283 84.8587 112.366 84.5169 112.525 84.2087C112.684 83.9005 112.916 83.6352 113.2 83.4359C113.568 83.177 114.007 83.0368 114.458 83.0356C114.719 83.0372 114.978 83.0837 115.223 83.1728C124.902 86.5521 133.997 91.4097 142.186 97.572C145.615 100.187 149.227 103.144 152.85 106.387C153.094 106.615 153.28 106.897 153.393 107.211C153.506 107.524 153.543 107.86 153.502 108.191ZM69.2978 131.028C69.3012 131.374 69.2206 131.716 69.0634 132.024C68.9062 132.332 68.6769 132.597 68.3948 132.798C68.1294 132.999 67.8196 133.134 67.4912 133.189C67.1629 133.245 66.8259 133.22 66.509 133.118C62.5967 131.885 58.9019 130.048 55.5591 127.672C43.3177 118.914 39.5573 104.229 46.5067 92.7537C51.0867 85.3252 58.1091 79.7177 66.3717 76.8926C66.703 76.7727 67.0587 76.7368 67.4075 76.7866C67.7563 76.8364 68.0875 76.9703 68.3719 77.178C68.6568 77.3766 68.889 77.6424 69.0483 77.9508C69.2077 78.2592 69.2897 78.6018 69.2867 78.9488L69.2978 131.028Z" fill="white"/>
</svg>
