<svg width="910" height="223" viewBox="0 0 910 223" fill="none" xmlns="http://www.w3.org/2000/svg">
<g clip-path="url(#clip0_89:2818)">
<path d="M259.37 19.0995C259.695 18.442 259.847 17.7131 259.812 16.9804C259.776 16.2477 259.554 15.5359 259.166 14.913C258.779 14.2902 258.238 13.7766 257.597 13.4208C256.955 13.0651 256.234 12.8787 255.5 12.8798H222.8C222.03 12.8796 221.273 13.0871 220.61 13.4794C219.947 13.8717 219.401 14.4349 219.03 15.1103C205.125 40.4746 187.302 63.4842 166.22 83.29C165.974 83.5213 165.648 83.6503 165.31 83.6503C164.972 83.6503 164.647 83.5213 164.4 83.29C158.887 78.0052 153.085 73.0305 147.02 68.3896C133.52 58.1596 117.87 50.7998 99.1803 45.8798C98.8955 45.8105 98.6423 45.6481 98.461 45.4179C98.2797 45.1877 98.1809 44.9033 98.1803 44.6103V17.2001C98.1776 16.0561 97.7211 14.9593 96.9112 14.1513C96.1013 13.3433 95.0044 12.8896 93.8604 12.8896H64.8604C64.2941 12.8883 63.7326 12.9996 63.2091 13.2158C62.6856 13.4319 62.2101 13.7489 61.8097 14.1494C61.4092 14.5498 61.0917 15.0253 60.8756 15.5488C60.6594 16.0723 60.5491 16.6338 60.5504 17.2001V40.0497C60.5513 40.3649 60.4382 40.6703 60.2325 40.9091C60.0268 41.1479 59.7421 41.3038 59.4303 41.3495C49.016 42.7628 39.0453 46.4706 30.2379 52.205C21.4305 57.9394 14.0059 65.5576 8.50008 74.5097C-7.86992 101.4 -0.0597591 136.11 26.6602 155.24C36.389 162.135 47.656 166.546 59.4801 168.09C59.7892 168.135 60.0716 168.291 60.2755 168.528C60.4793 168.765 60.5914 169.067 60.5904 169.38V215.24C60.5904 216.384 61.0441 217.481 61.8521 218.291C62.6601 219.101 63.756 219.558 64.9 219.56H93.9C95.0449 219.558 96.1422 219.102 96.9517 218.292C97.7613 217.482 98.2177 216.385 98.2203 215.24V166.81C98.2187 166.516 98.3162 166.228 98.4976 165.996C98.6791 165.764 98.9339 165.6 99.2203 165.53C105.525 164.002 111.732 162.098 117.81 159.83C119.71 159.14 137.03 152.58 160.5 136.27C160.771 136.084 161.101 136.005 161.427 136.05C161.752 136.094 162.049 136.258 162.26 136.51C180.9 159.21 200.15 187.91 216.46 217.34C216.833 218.013 217.38 218.573 218.043 218.964C218.706 219.354 219.461 219.561 220.23 219.56H253.11C253.852 219.56 254.581 219.368 255.227 219.004C255.873 218.64 256.414 218.115 256.799 217.481C257.184 216.847 257.399 216.126 257.423 215.385C257.448 214.644 257.282 213.908 256.94 213.25C244.931 190.176 231.513 167.864 216.76 146.44C208.47 134.44 200 123.12 191.59 112.89C191.378 112.629 191.271 112.298 191.294 111.962C191.316 111.626 191.465 111.311 191.71 111.08C219.26 85.49 242.01 54.5495 259.37 19.0995ZM134.27 107.63C134.25 107.926 134.161 108.213 134.01 108.469C133.859 108.724 133.65 108.939 133.4 109.1C116.65 120.04 105.03 124.46 104.83 124.53C103.45 125.05 102.09 125.53 100.75 125.98C100.462 126.083 100.152 126.113 99.8492 126.069C99.5461 126.026 99.2584 125.91 99.0103 125.73C98.7618 125.558 98.5589 125.328 98.4195 125.06C98.2801 124.791 98.2082 124.493 98.21 124.19V87.4999C98.2082 87.1962 98.2802 86.8968 98.4195 86.6269C98.5588 86.3569 98.7617 86.1246 99.0103 85.9501C99.3324 85.7234 99.7165 85.6006 100.11 85.5995C100.339 85.601 100.566 85.6417 100.78 85.7197C109.248 88.6792 117.205 92.9333 124.37 98.33C127.37 100.62 130.53 103.21 133.7 106.05C133.913 106.249 134.076 106.497 134.175 106.771C134.274 107.046 134.307 107.34 134.27 107.63ZM60.6002 127.63C60.6031 127.933 60.5327 128.232 60.3951 128.502C60.2576 128.772 60.0569 129.004 59.8101 129.18C59.578 129.356 59.3069 129.474 59.0196 129.522C58.7324 129.571 58.4375 129.549 58.1602 129.46C54.7374 128.38 51.5048 126.771 48.5802 124.69C37.8702 117.02 34.5802 104.16 40.6602 94.1103C44.6673 87.6047 50.8112 82.6938 58.0401 80.2197C58.33 80.1147 58.6412 80.0833 58.9464 80.1269C59.2515 80.1705 59.5413 80.2877 59.7901 80.4697C60.0394 80.6436 60.2425 80.8763 60.3819 81.1464C60.5213 81.4165 60.5931 81.7165 60.5904 82.0204L60.6002 127.63Z" fill="white"/>
<path d="M316.83 69.0995C273.93 69.0995 240.33 102.1 240.33 145C240.33 188.5 274.23 222.4 317.73 222.4C353.1 222.4 380.2 203.4 386.61 173.79C386.707 173.318 386.697 172.83 386.581 172.362C386.465 171.894 386.247 171.459 385.941 171.086C385.636 170.713 385.25 170.413 384.814 170.208C384.378 170.003 383.902 169.898 383.42 169.9H348.25C347.589 169.9 346.945 170.106 346.407 170.489C345.869 170.873 345.465 171.415 345.25 172.04C341.96 181.09 331.81 187.3 316.49 187.3C298.12 187.3 284.14 176.71 279.82 159.85C279.698 159.369 279.688 158.867 279.789 158.382C279.891 157.897 280.103 157.442 280.408 157.051C280.713 156.66 281.103 156.344 281.549 156.127C281.995 155.91 282.484 155.798 282.98 155.8H385.56C386.371 155.801 387.152 155.499 387.752 154.953C388.351 154.407 388.725 153.657 388.8 152.85C389.19 148.49 389.39 143.47 389.39 140.8C389.43 100.33 356.73 69.0995 316.83 69.0995ZM283.59 128.8C283.303 128.8 283.02 128.731 282.765 128.6C282.51 128.468 282.29 128.277 282.124 128.043C281.958 127.809 281.849 127.539 281.808 127.255C281.768 126.971 281.796 126.681 281.89 126.41C287.42 110.66 299.59 103.3 315.03 103.3C329.9 103.3 342.87 112.85 345.08 126.74C345.119 126.995 345.102 127.255 345.031 127.503C344.96 127.751 344.836 127.981 344.668 128.177C344.5 128.372 344.291 128.529 344.057 128.637C343.823 128.744 343.568 128.8 343.31 128.8H283.59Z" fill="white"/>
<path d="M480.37 69.0995C465.37 69.0995 452.79 75.5501 443.64 86.9501C443.405 87.2342 443.089 87.4386 442.733 87.5361C442.378 87.6335 442.001 87.6188 441.654 87.4941C441.307 87.3694 441.008 87.1412 440.796 86.8398C440.584 86.5383 440.47 86.179 440.47 85.8105V75.33C440.47 74.4681 440.127 73.6417 439.518 73.0322C438.908 72.4227 438.082 72.08 437.22 72.08H401.37C400.509 72.0827 399.684 72.4262 399.075 73.0351C398.466 73.644 398.123 74.4689 398.12 75.33V216.13C398.12 216.992 398.462 217.818 399.072 218.428C399.681 219.037 400.508 219.38 401.37 219.38H437.17C437.597 219.381 438.021 219.299 438.415 219.136C438.81 218.973 439.169 218.733 439.471 218.431C439.773 218.129 440.012 217.77 440.175 217.375C440.338 216.98 440.421 216.557 440.42 216.13V141.38C440.42 122.18 451.82 109.58 469.52 109.58C486.92 109.58 498.62 122.18 498.62 141.38V216.13C498.62 216.557 498.705 216.981 498.869 217.376C499.032 217.771 499.273 218.13 499.576 218.432C499.878 218.734 500.238 218.973 500.633 219.136C501.029 219.298 501.452 219.381 501.88 219.38H537.67C538.097 219.381 538.521 219.298 538.917 219.136C539.312 218.973 539.672 218.734 539.974 218.432C540.277 218.13 540.518 217.771 540.682 217.376C540.845 216.981 540.93 216.557 540.93 216.13V135.98C540.93 94.3304 518.12 69.0995 480.37 69.0995Z" fill="white"/>
<path d="M901.57 72.1H865.77C863.975 72.1 862.52 73.5551 862.52 75.35V216.15C862.52 217.945 863.975 219.4 865.77 219.4H901.57C903.365 219.4 904.82 217.945 904.82 216.15V75.35C904.82 73.5551 903.365 72.1 901.57 72.1Z" fill="white"/>
<path d="M883.52 51.9999C890.346 51.9476 896.878 49.2128 901.705 44.3857C906.533 39.5585 909.268 33.0265 909.32 26.2001C909.32 12.4001 897.62 0.700127 883.52 0.700127C869.42 0.700127 857.72 12.4001 857.72 26.2001C857.772 33.0265 860.507 39.5585 865.334 44.3857C870.161 49.2128 876.693 51.9476 883.52 51.9999Z" fill="white"/>
<path d="M787.22 69.0995C772.22 69.0995 759.67 75.5303 750.53 86.9003C750.293 87.1899 749.972 87.3986 749.611 87.498C749.25 87.5974 748.867 87.5822 748.515 87.455C748.163 87.3278 747.859 87.0942 747.645 86.787C747.431 86.4799 747.318 86.1145 747.32 85.7402V12.6503C747.318 11.7892 746.974 10.9633 746.365 10.3544C745.756 9.7455 744.931 9.40296 744.07 9.40032H708.27C707.408 9.40032 706.582 9.742 705.972 10.3515C705.363 10.961 705.02 11.7884 705.02 12.6503V216.15C705.019 216.577 705.102 217.001 705.265 217.395C705.427 217.79 705.667 218.149 705.969 218.451C706.271 218.753 706.63 218.992 707.025 219.155C707.42 219.318 707.843 219.402 708.27 219.4H744.07C744.932 219.4 745.759 219.058 746.368 218.448C746.978 217.839 747.32 217.012 747.32 216.15V141.4C747.32 122.2 758.72 109.6 776.42 109.6C793.82 109.6 805.52 122.2 805.52 141.4V216.15C805.52 217.012 805.863 217.839 806.472 218.448C807.082 219.058 807.908 219.4 808.77 219.4H844.57C845.432 219.4 846.259 219.058 846.868 218.448C847.478 217.839 847.82 217.012 847.82 216.15V136C847.82 94.3299 825.02 69.0995 787.22 69.0995Z" fill="white"/>
<path d="M625.82 181.9C605.72 181.9 590.72 166.3 590.72 145.9C590.72 124.9 605.72 109.6 625.82 109.6C638.99 109.6 650.32 116.4 654.21 126.09C654.444 126.7 654.854 127.226 655.389 127.602C655.923 127.977 656.557 128.186 657.21 128.2H694.02C694.493 128.201 694.96 128.098 695.39 127.899C695.819 127.701 696.2 127.412 696.505 127.051C696.811 126.69 697.034 126.267 697.159 125.81C697.284 125.354 697.308 124.876 697.23 124.41C691.53 92.4101 661.29 69.0995 625.78 69.0995C582.28 69.0995 549.28 102.1 549.28 145.9C549.28 189.7 582.28 222.4 625.78 222.4C661.94 222.4 692.52 198.97 697.62 165.83C697.687 165.368 697.655 164.896 697.524 164.447C697.393 163.999 697.167 163.583 696.862 163.229C696.556 162.876 696.179 162.592 695.754 162.397C695.329 162.202 694.867 162.1 694.4 162.1H657.55C656.881 162.106 656.229 162.316 655.682 162.702C655.136 163.088 654.72 163.631 654.49 164.26C650.64 174.54 639.02 181.9 625.82 181.9Z" fill="white"/>
</g>
<defs>
<clipPath id="clip0_89:2818">
<rect width="909.32" height="221.7" fill="white" transform="translate(0 0.700012)"/>
</clipPath>
</defs>
</svg>
