<svg viewBox="0 0 203 155" xmlns="http://www.w3.org/2000/svg">
	<path d="M93.71 41.22V154.08H0.230003L93.71 41.22Z" fill="current" />
	<path
		d="M93.71 0.709999C93.71 13.1062 88.7856 24.9947 80.0202 33.7602C71.2547 42.5256 59.3662 47.45 46.97 47.45C34.5738 47.45 22.6853 42.5256 13.9198 33.7602C5.15438 24.9947 0.230003 13.1062 0.230003 0.709999H93.71Z"
		fill="current" />
	<path d="M109.11 113.57V0.709999H202.6L109.11 113.57Z" fill="current" />
	<path
		d="M155.85 107.33C143.453 107.333 131.564 112.259 122.799 121.026C114.034 129.793 109.11 141.683 109.11 154.08H202.59C202.591 147.941 201.383 141.862 199.035 136.19C196.687 130.518 193.244 125.365 188.904 121.023C184.563 116.682 179.41 113.238 173.739 110.889C168.068 108.539 161.989 107.33 155.85 107.33Z"
		fill="current" />
</svg>